#!OML:ASF H:\Dans Jumps\Project 1\Capture day 1\Session 1\subject.ASF
:FULLY-SPECIFIED
:DEGREES
76
root 0.480233 14.843 -16.2013 18.3582 -2.52474 -2.53443
lowerback 18.3506 -0.107484 -0.559427
upperback 6.93593 -0.136962 2.5281
thorax -2.82344 -0.111027 3.02288
lowerneck -17.6737 1.95813 -0.509858
upperneck 17.3928 3.5283 -3.42938
head 8.38506 1.26403 -0.636082
rclavicle 4.87022e-015 3.67752e-015
rhumerus -29.8019 -10.1377 -75.5413
rradius 30.9425
rwrist 22.2752
rhand -18.6609 -25.986
rfingers 7.12502
rthumb 7.63243 -55.8283
lclavicle 4.87022e-015 3.67752e-015
lhumerus -28.8346 -5.15942 84.6673
lradius 26.8086
lwrist 20.2942
lhand -29.0349 -4.66682
lfingers 7.12502
lthumb -2.38542 25.2996
rfemur -64.7485 -2.07752 22.0069
rtibia 72.9615
rfoot -24.9961 -6.21124
rtoes 0.900645
lfemur -63.8198 10.0646 -20.7694
ltibia 73.7129
lfoot -24.4655 11.4067
ltoes -5.38935
77
root 0.47934 14.7783 -16.2161 18.6471 -2.54213 -2.53781
lowerback 18.5669 -0.0975266 -0.612925
upperback 6.9682 -0.132756 2.51758
thorax -2.90133 -0.109187 3.04396
lowerneck -17.8189 1.98227 -0.49354
upperneck 17.1356 3.55231 -3.44408
head 8.32489 1.27827 -0.639823
rclavicle -2.48481e-015 -9.54166e-015
rhumerus -30.9729 -10.4873 -75.2268
rradius 30.5032
rwrist 22.6874
rhand -18.5348 -25.8143
rfingers 7.12502
rthumb 7.75413 -55.6521
lclavicle -2.48481e-015 -9.54166e-015
lhumerus -30.037 -4.9407 84.7974
lradius 26.2881
lwrist 20.3841
lhand -28.9515 -4.7461
lfingers 7.12502
lthumb -2.30486 25.2212
rfemur -65.6171 -2.04878 22.0293
rtibia 73.7477
rfoot -25.189 -6.30539
rtoes 0.795177
lfemur -64.6886 10.0817 -20.8454
ltibia 74.5106
lfoot -24.6605 11.5165
ltoes -5.48099
78
root 0.478227 14.7131 -16.2302 18.9304 -2.55826 -2.5368
lowerback 18.7847 -0.086817 -0.672261
upperback 6.99273 -0.128593 2.50891
thorax -2.98802 -0.10725 3.07043
lowerneck -17.9407 2.00613 -0.479631
upperneck 16.8731 3.57704 -3.46455
head 8.25897 1.29249 -0.645235
rclavicle 9.24349e-015 3.02153e-014
rhumerus -32.1859 -10.8294 -74.8828
rradius 30.0971
rwrist 23.1354
rhand -18.3937 -25.6412
rfingers 7.12502
rthumb 7.89038 -55.4739
lclavicle 9.24349e-015 3.02153e-014
lhumerus -31.2945 -4.73054 84.9358
lradius 25.8144
lwrist 20.4647
lhand -28.8471 -4.76297
lfingers 7.12502
lthumb -2.20406 25.2054
rfemur -66.4796 -2.02715 22.0501
rtibia 74.5342
rfoot -25.3845 -6.39836
rtoes 0.684943
lfemur -65.5504 10.1063 -20.9293
ltibia 75.3059
lfoot -24.8573 11.6183
ltoes -5.57521
79
root 0.476935 14.6476 -16.2436 19.2052 -2.57186 -2.52754
lowerback 19.0067 -0.0766384 -0.73791
upperback 7.0114 -0.126361 2.50026
thorax -3.08281 -0.106131 3.10106
lowerneck -18.0441 2.03015 -0.462567
upperneck 16.6083 3.60292 -3.49646
head 8.18949 1.30657 -0.655016
rclavicle 2.88238e-015 -1.39149e-015
rhumerus -33.4415 -11.1476 -74.5183
rradius 29.7465
rwrist 23.5797
rhand -18.2176 -25.5148
rfingers 7.12502
rthumb 8.06033 -55.3411
lclavicle 2.88238e-015 -1.39149e-015
lhumerus -32.6018 -4.53006 85.0797
lradius 25.3866
lwrist 20.5185
lhand -28.7222 -4.75808
lfingers 7.12502
lthumb -2.08342 25.2115
rfemur -67.3309 -2.01401 22.0644
rtibia 75.3199
rfoot -25.5824 -6.4933
rtoes 0.547396
lfemur -66.3992 10.1323 -21.0232
ltibia 76.0954
lfoot -25.0565 11.7152
ltoes -5.67173
